<?xml version="1.0" encoding="UTF-8"?>
<!DOCTYPE svg PUBLIC "-//W3C//DTD SVG 1.1//EN" "http://www.w3.org/Graphics/SVG/1.1/DTD/svg11.dtd">
<!-- Creator: CorelDRAW 2017 -->
<svg xmlns="http://www.w3.org/2000/svg" xml:space="preserve" width="135.467mm" height="135.467mm" version="1.1" style="shape-rendering:geometricPrecision; text-rendering:geometricPrecision; image-rendering:optimizeQuality; fill-rule:evenodd; clip-rule:evenodd"
viewBox="0 0 13547 13547"
 xmlns:xlink="http://www.w3.org/1999/xlink">
 <defs>
  <style type="text/css">
   <![CDATA[
    .fil0 {fill:#EE3737}
    .fil2 {fill:#74C054}
    .fil1 {fill:#34B778}
    .fil7 {fill:#190812}
    .fil6 {fill:#2B2C2C}
    .fil9 {fill:#491629}
    .fil11 {fill:#660605}
    .fil3 {fill:#F2433B}
    .fil10 {fill:#F33A6D}
    .fil8 {fill:#F45B96}
    .fil5 {fill:#FAFBFB}
    .fil12 {fill:#FE74AC}
    .fil4 {fill:#FFDB56}
   ]]>
  </style>
 </defs>
 <g id="Camada_x0020_1">
  <metadata id="CorelCorpID_0Corel-Layer"/>
  <path class="fil0" d="M5791 10385c149,245 341,536 491,767 370,569 358,615 739,720l0 0 -4 -4907c-456,0 -745,-73 -1062,-221 -2377,-1107 -1870,-4610 1020,-4869l33 -1633c-3261,-123 -5352,3526 -3667,6305 806,1292 1664,2544 2450,3839z"/>
  <path class="fil0" d="M8303 10386c-142,250 -325,548 -469,784 -295,485 -416,553 -654,642 -48,18 -100,37 -160,60l-77 -661 -63 -2203 19 -2044c3091,-95 3571,-4871 -40,-5083l-91 -1632c83,-3 158,-8 240,-6 3383,64 5097,3629 3635,6217 -469,807 -959,1599 -1439,2396 -307,506 -609,1017 -901,1532z"/>
  <path class="fil1" d="M6999 13297c0,46 -5,48 3,48 178,4 644,1 925,0 1455,-136 3350,-565 4216,-1248 911,-719 732,-1637 -180,-2293 -642,-461 -1821,-710 -2797,-866 -9,-6 -15,-3 -19,-5 -2,-1 -11,15 -24,35 -3,5 -7,10 -10,15 -1,2 -3,4 -4,6 -8,12 -16,25 -23,36 -94,144 -283,411 -478,749 -5,9 -11,17 -16,25 -9,14 -18,28 -27,43 -34,54 -69,109 -103,165 -174,283 -367,589 -546,877 -14,22 -29,44 -43,66 -27,42 -54,83 -81,124 -47,71 -92,141 -136,208 -117,181 -201,309 -275,387 -45,47 -133,114 -197,139 -2,1 -3,1 -5,2 -1,0 -2,1 -3,1 -3,1 -6,2 -9,3 -7,3 -14,6 -22,8 -52,17 -114,28 -143,68 -228,306 -31,950 -4,1405z"/>
  <path class="fil2" d="M7000 13345c0,-597 85,-1426 21,-1473 -887,-656 -1400,-2017 -2165,-2971 -921,2 -2899,667 -3404,1478 -1174,1885 2514,2694 3950,2873 281,35 1442,153 1599,93z"/>
  <path class="fil3" d="M5426 5944c-7,10 -2,1 -10,17 -63,127 -74,256 39,361 41,38 110,71 164,99 41,20 146,72 187,75l663 -142c227,-57 431,-110 641,-174 196,-60 986,-326 1194,-435 -10,-42 -40,-105 -58,-150 -22,-56 -40,-100 -62,-155l-124 -301c-39,3 -264,106 -307,127 -199,97 -728,273 -943,342 -323,104 -684,194 -1026,268l-357 68z"/>
  <path class="fil3" d="M5888 4795c-7,10 -2,1 -10,17l-218 543c-15,37 -68,155 -71,193 158,-11 1094,-299 1210,-339 423,-148 601,-224 976,-382 36,-15 113,-43 132,-68 -12,-51 -39,-107 -59,-158l-129 -323c-21,-52 -42,-114 -65,-162l-211 97c-310,153 -764,326 -1093,436l-461 146z"/>
  <path class="fil4" d="M5807 6496c8,7 3,5 16,11 92,45 454,113 563,125 38,4 64,6 107,11 343,37 709,22 1028,-25 155,-23 246,-46 391,-89 119,-35 404,-142 476,-240 30,-40 61,-115 52,-191 -6,-44 -111,-308 -135,-354 -208,110 -998,376 -1194,435 -210,64 -414,117 -641,174l-663 142z"/>
  <path class="fil4" d="M5589 5547c-24,25 -72,160 -85,194 -25,62 -63,142 -78,203l357 -68c343,-73 704,-164 1026,-268 215,-69 745,-246 943,-342 44,-21 269,-124 307,-127l-74 -189c-13,-31 -24,-61 -39,-97 -8,-19 -10,-25 -18,-45l-23 -49c-18,25 -96,53 -132,68 -375,157 -553,234 -976,382 -116,41 -1052,329 -1210,339z"/>
  <path class="fil3" d="M6413 3487c-19,36 -31,72 -44,105l-291 732 41 -3c416,-144 1008,-402 1372,-594 -13,-56 -182,-462 -220,-559 -13,-34 -18,-55 -34,-84 -136,71 -269,144 -404,211 -131,66 -285,140 -419,192z"/>
  <path class="fil4" d="M6078 4324c-20,24 -80,187 -96,229l-93 242 461 -146c329,-110 783,-283 1093,-436l211 -97c-14,-29 -26,-64 -39,-97l-79 -193c-7,-17 -13,-33 -20,-52 -1,-1 -9,-23 -11,-26 -11,-21 -3,-9 -14,-22 -364,192 -955,450 -1372,594l-41 3z"/>
  <path class="fil4" d="M6413 3487c135,-52 288,-126 419,-192 135,-67 268,-140 404,-211 -8,-33 -29,-77 -43,-111l-138 -341c-46,11 -90,35 -154,36 -66,1 -103,-29 -154,-36 -21,92 -330,806 -335,856z"/>
  <path class="fil3" d="M6748 2631c50,7 87,36 154,36 64,-1 108,-25 154,-36 248,-131 217,-481 -21,-585 -18,-8 -38,-11 -59,-12l-85 0c-111,0 -129,9 -196,64 -160,133 -164,388 53,533z"/>
  <path class="fil5" d="M6945 4187c5,-35 20,-49 23,-92 3,-48 -6,-72 -9,-113 -8,-21 -24,-49 -23,-69 -29,-22 -21,-53 -83,-112 -110,-104 -291,-59 -275,165 15,210 217,349 324,268 19,-10 36,-36 44,-47z"/>
  <path class="fil5" d="M6984 4165c17,145 277,101 263,-162 -4,-79 -64,-168 -154,-124 -74,7 -121,134 -109,286z"/>
  <path class="fil6" d="M6926 4248c91,-129 66,-149 32,-98 -4,6 -11,26 -15,35 -72,140 -341,41 -363,-220 -16,-224 166,-257 276,-153 63,59 119,313 126,289 56,-21 -91,-352 -202,-364 -178,-63 -292,160 -187,367 18,35 38,68 64,97 47,51 91,69 138,76 41,6 85,9 130,-28z"/>
  <path class="fil6" d="M6971 3997c6,48 19,83 20,102 8,106 -39,-171 97,-211 90,-44 152,38 157,117 14,263 -243,306 -261,161 4,0 -1,-9 -4,-22 -4,-19 17,-53 11,-82 -4,-46 -19,-77 -37,-91 3,41 9,74 5,122 -1,22 -3,38 -8,57 -10,38 -8,73 91,118 40,16 84,1 112,-17 191,-126 116,-459 -66,-384 -24,10 -121,105 -118,131z"/>
  <path class="fil7" d="M6745 4039c-111,55 -33,204 69,159 103,-45 30,-208 -69,-159z"/>
  <path class="fil7" d="M6802 3554c-48,-43 -176,-39 -234,-11 -64,30 -121,109 -87,193 97,-177 133,-135 321,-182z"/>
  <path class="fil7" d="M7352 3860c-6,-70 -43,-135 -87,-166 -63,-44 -108,-45 -190,-28 2,-9 270,174 278,194z"/>
  <g id="_1982352065904">
   <path class="fil8" d="M6761 5101c10,12 6,18 15,34 7,13 13,23 20,36 11,20 33,46 54,52 53,24 27,28 79,0 24,-13 56,-18 81,-26 31,-10 16,-19 44,-36 16,-9 -2,0 15,-7 109,-41 55,-155 42,-237 -14,-84 -36,-105 -30,-177l-22 0 -66 20c0,32 14,92 16,134 3,45 19,69 13,122 -95,9 -36,-197 -66,-254 -138,-25 -157,0 -180,91 -27,87 -21,150 -15,249z"/>
   <path class="fil7" d="M7396 4541c-12,18 -23,23 -46,35 -15,5 -63,36 -91,48 -23,11 -3,6 -36,16 -47,15 -35,14 -78,31l-36 14c-183,58 -382,-35 -573,-44 11,13 184,90 214,97 54,12 26,19 58,17 16,-1 13,-6 30,-10 2,0 4,0 7,0 3,0 7,0 11,0 2,0 3,0 5,0 3,0 5,0 8,0 16,0 34,0 46,0 77,0 33,13 98,-4 38,-10 51,-19 69,-10 112,119 235,335 109,459 -105,103 -317,121 -398,-20 -7,-13 -13,-23 -20,-36 -63,-162 42,-243 35,-379 -37,-35 -85,25 -144,107l44 24c18,33 -15,98 2,210 18,120 119,203 228,222 128,23 248,-18 325,-123 15,-20 20,-29 31,-53 39,-79 38,-171 6,-253 -1,-2 -3,-6 -3,-8 -14,-40 13,-57 49,-100 22,-27 124,-248 150,-301 49,18 6,28 43,36 9,-69 -97,-137 -116,-88 85,-1 62,35 27,67 -21,19 -47,37 -56,44z"/>
   <path class="fil7" d="M6517 4630c-51,-39 -7,-58 -2,-66 -24,-13 -59,20 -72,39 -16,24 -30,77 -5,102l6 -23c2,-17 -1,-42 14,-64 6,-9 1,-4 8,-9 34,28 99,215 245,280l-12 -23c22,-3 21,-3 31,-19 2,-3 9,-13 9,-13 56,-52 83,-95 216,-73 30,57 -28,263 66,254 7,-53 -10,-76 -13,-122 -3,-42 -16,-102 -16,-134l66 -20c12,-3 22,-7 28,-11 17,-12 3,-24 -26,-7 -19,12 -44,15 -61,19 -51,13 -29,4 -83,5 -49,-13 -172,5 -201,-24 82,5 224,25 308,-8 38,-15 29,0 88,-24l36 -14c43,-17 28,-15 75,-31 15,-5 57,-25 75,-33 1,0 87,-54 87,-54 8,-5 59,-42 85,-71 8,-9 11,-21 13,-26 -23,-7 -119,87 -147,103l-109 59c-5,2 -7,2 -12,5l-78 33c-1,0 -3,1 -4,1 -1,0 -3,1 -4,1 -6,2 -7,2 -13,4 -3,1 -9,4 -12,5 -122,44 -132,25 -170,36 -62,17 -126,-3 -189,-5 -33,-1 -27,-6 -56,-11 -25,-4 -7,2 -26,-7 -16,-7 -141,-52 -145,-55z"/>
   <path class="fil9" d="M6956 4762c30,57 -28,263 66,254 7,-53 -10,-76 -13,-122 -3,-42 -16,-102 -16,-134l66 -20c42,-18 38,-42 2,-18 -18,12 -44,15 -61,19 -51,13 -29,4 -83,5 -44,0 20,13 39,16z"/>
   <path class="fil10" d="M6850 5222c21,46 207,102 343,-31 36,-36 33,-61 55,-96 7,-50 19,-76 9,-132 -15,-80 -51,-137 -97,-191 -13,-16 -36,-33 -61,-44 -5,-2 -69,13 -18,11 -6,72 17,94 30,177 13,82 67,196 -42,237 -17,7 1,-3 -15,7 -29,17 -14,27 -44,36 -26,8 -57,14 -81,26 -52,28 -26,24 -79,0z"/>
   <path class="fil11" d="M7169 4714c45,76 74,109 138,56 16,-13 27,-28 38,-46 22,-36 48,-64 49,-125 -30,4 -204,89 -214,99 -11,11 -5,0 -11,16z"/>
   <path class="fil11" d="M6713 4849l23 -39c17,-29 27,-35 27,-57 -21,-15 -74,-22 -118,-35 -45,-13 -91,-41 -104,-41 -3,52 109,173 173,172z"/>
   <path class="fil12" d="M6895 5083c21,-26 22,-104 10,-144 -14,-51 -6,-2 -13,-66 -3,-32 3,-44 1,-68l-32 -2c-20,26 -16,33 -16,73 2,82 -31,140 11,194 14,18 8,15 38,13z"/>
  </g>
  <path class="fil7" d="M7036 4055c-111,55 -33,204 69,159 103,-45 30,-208 -69,-159z"/>
 </g>
</svg>
