<?xml version="1.0" encoding="UTF-8"?>
<!DOCTYPE svg PUBLIC "-//W3C//DTD SVG 1.1//EN" "http://www.w3.org/Graphics/SVG/1.1/DTD/svg11.dtd">
<!-- Creator: CorelDRAW 2017 -->
<svg xmlns="http://www.w3.org/2000/svg" xml:space="preserve" width="92mm" height="105.5mm" version="1.1" style="shape-rendering:geometricPrecision; text-rendering:geometricPrecision; image-rendering:optimizeQuality; fill-rule:evenodd; clip-rule:evenodd"
viewBox="0 0 9200 10550"
 xmlns:xlink="http://www.w3.org/1999/xlink">
 <defs>
  <style type="text/css">
   <![CDATA[
    .fil0 {fill:#EE3737}
    .fil2 {fill:#74C054}
    .fil1 {fill:#34B778}
    .fil3 {fill:#00A859}
    .fil24 {fill:#00ADED}
    .fil20 {fill:#00AEEE}
    .fil23 {fill:#050506}
    .fil8 {fill:#190812}
    .fil10 {fill:#190812}
    .fil22 {fill:#27AAE1}
    .fil7 {fill:#2B2C2C}
    .fil17 {fill:#38B349}
    .fil11 {fill:#491629}
    .fil13 {fill:#660605}
    .fil27 {fill:#D7DF23}
    .fil21 {fill:#DA1C5C}
    .fil25 {fill:#EA008B}
    .fil26 {fill:#ED1C24}
    .fil16 {fill:#ED4135}
    .fil18 {fill:#EE2A7B}
    .fil19 {fill:#F15A29}
    .fil4 {fill:#F2433B}
    .fil12 {fill:#F33A6D}
    .fil9 {fill:#F45B96}
    .fil6 {fill:#FAFBFB}
    .fil29 {fill:#FCFDFD}
    .fil28 {fill:#FDF000}
    .fil14 {fill:#FE74AC}
    .fil15 {fill:#FEF100}
    .fil5 {fill:#FFDB56}
   ]]>
  </style>
 </defs>
 <g id="Camada_x0020_1">
  <metadata id="CorelCorpID_0Corel-Layer"/>
  <path class="fil0" d="M3664 8051c116,191 265,417 382,597 288,443 279,479 576,560l0 0 -3 -3820c-355,0 -580,-57 -826,-172 -1850,-861 -1456,-3588 794,-3790l26 -1271c-2538,-95 -4166,2744 -2855,4908 627,1006 1295,1980 1907,2988z"/>
  <path class="fil0" d="M5620 8051c-110,195 -253,427 -365,611 -230,378 -324,430 -509,500 -37,14 -78,28 -124,46l-60 -515 -49 -1715 15 -1591c2406,-74 2779,-3792 -31,-3957l-71 -1270c65,-2 123,-6 187,-5 2633,50 3968,2825 2829,4839 -365,628 -746,1245 -1120,1865 -239,394 -474,791 -701,1192z"/>
  <path class="fil1" d="M4605 10318c0,36 -4,37 3,37 139,3 501,1 720,0 1133,-106 2608,-440 3282,-972 709,-560 570,-1275 -140,-1785 -499,-359 -1417,-553 -2177,-674 -7,-5 -12,-2 -14,-4 -2,-1 -8,12 -18,27 -3,4 -5,8 -8,12 -1,2 -2,3 -3,5 -7,9 -12,19 -18,28 -73,112 -220,320 -372,583 -4,7 -8,13 -12,20 -7,11 -14,22 -21,33 -26,42 -53,85 -80,129 -135,220 -286,458 -425,683 -11,17 -22,35 -33,52 -21,33 -42,65 -63,96 -37,55 -72,110 -106,162 -91,141 -156,240 -214,301 -35,37 -103,89 -153,108 -1,0 -3,1 -4,1 -1,0 -1,1 -2,1 -2,1 -5,2 -7,3 -5,2 -11,4 -17,6 -40,14 -88,22 -111,53 -177,238 -24,739 -3,1094z"/>
  <path class="fil2" d="M4606 10355c0,-465 66,-1110 16,-1147 -691,-511 -1090,-1570 -1685,-2313 -717,2 -2257,520 -2650,1151 -914,1467 1957,2097 3075,2236 218,27 1122,119 1244,72z"/>
  <circle class="fil3" cx="4595" cy="3418" r="2608"/>
  <g id="_2886554238608">
   <path class="fil4" d="M3192 5088c-6,9 -2,1 -9,16 -59,119 -69,241 37,339 38,35 103,67 154,93 38,19 137,68 176,71l623 -134c213,-53 405,-103 602,-163 184,-56 927,-306 1122,-409 -9,-39 -38,-99 -55,-141 -21,-52 -38,-94 -58,-146l-117 -283c-36,3 -248,99 -289,119 -187,91 -684,257 -886,322 -303,97 -642,183 -964,252l-336 64z"/>
   <path class="fil4" d="M3626 4009c-6,9 -2,1 -9,16l-205 510c-14,35 -64,145 -67,181 149,-10 1027,-281 1137,-319 397,-139 565,-211 917,-359 34,-14 106,-40 124,-64 -11,-48 -37,-101 -56,-148l-121 -304c-20,-49 -39,-107 -61,-152l-198 91c-291,144 -718,306 -1027,410l-433 137z"/>
   <path class="fil5" d="M3549 5607c7,7 3,4 15,11 86,42 427,106 529,117 36,4 60,6 101,10 322,35 666,20 966,-23 145,-21 231,-43 367,-83 112,-33 379,-134 447,-225 28,-38 58,-108 49,-179 -5,-41 -104,-289 -127,-333 -195,103 -937,353 -1122,409 -197,60 -389,110 -602,163l-623 134z"/>
   <path class="fil5" d="M3345 4716c-23,23 -68,151 -80,182 -23,58 -60,134 -73,191l336 -64c322,-69 661,-154 964,-252 202,-65 699,-231 886,-322 41,-20 252,-116 289,-119l-69 -177c-12,-29 -23,-57 -36,-91 -7,-18 -9,-24 -17,-43l-22 -46c-17,23 -90,50 -124,64 -352,148 -520,220 -917,359 -109,38 -988,309 -1137,319z"/>
   <path class="fil4" d="M4119 2780c-18,34 -29,67 -41,99l-274 688 39 -3c391,-135 947,-377 1288,-558 -12,-53 -171,-434 -207,-525 -12,-32 -17,-52 -31,-79 -128,66 -253,135 -380,198 -123,62 -267,132 -394,180z"/>
   <path class="fil5" d="M3804 3566c-19,23 -75,175 -91,215l-87 227 433 -137c309,-104 736,-266 1027,-410l198 -91c-13,-27 -24,-60 -36,-91l-74 -181c-6,-16 -12,-31 -19,-49 -1,-1 -9,-21 -10,-24 -10,-20 -3,-9 -13,-21 -342,181 -897,423 -1288,558l-39 3z"/>
   <path class="fil5" d="M4119 2780c127,-48 271,-119 394,-180 127,-63 252,-132 380,-198 -7,-31 -27,-72 -40,-105l-130 -321c-43,10 -84,33 -145,34 -62,1 -97,-27 -144,-34 -20,87 -310,757 -315,804z"/>
   <path class="fil4" d="M4433 1976c47,7 82,34 144,34 60,-1 102,-24 145,-34 233,-123 204,-452 -20,-550 -17,-8 -36,-11 -55,-12l-80 0c-104,0 -122,9 -184,60 -150,125 -154,364 50,501z"/>
   <path class="fil6" d="M4619 3438c5,-32 19,-46 22,-87 3,-45 -6,-68 -9,-106 -7,-20 -22,-46 -21,-65 -27,-21 -20,-50 -78,-105 -103,-98 -274,-55 -259,155 14,197 204,328 304,251 18,-9 34,-34 41,-44z"/>
   <path class="fil6" d="M4655 3417c16,136 260,95 247,-152 -4,-74 -60,-158 -145,-116 -69,7 -114,126 -102,268z"/>
   <path class="fil7" d="M4600 3495c86,-121 62,-140 30,-92 -4,6 -10,25 -14,33 -68,131 -320,39 -341,-207 -15,-210 156,-241 259,-144 59,55 112,294 118,272 52,-19 -86,-330 -190,-342 -168,-59 -274,151 -176,345 17,33 35,64 60,91 44,48 85,65 130,72 38,6 80,8 122,-27z"/>
   <path class="fil7" d="M4643 3260c5,45 18,78 19,96 8,99 -37,-161 91,-199 85,-42 143,36 147,110 13,247 -229,287 -245,151 4,0 -1,-9 -4,-21 -3,-17 16,-49 11,-77 -4,-43 -18,-72 -34,-85 3,38 8,70 5,115 -1,21 -3,36 -7,53 -10,36 -7,69 86,111 38,15 79,1 105,-16 179,-119 109,-432 -62,-360 -22,9 -114,98 -111,123z"/>
   <path class="fil8" d="M4431 3299c-104,52 -31,192 65,149 97,-43 28,-196 -65,-149z"/>
   <path class="fil8" d="M4484 2843c-45,-41 -165,-37 -220,-10 -60,29 -114,102 -82,182 92,-166 125,-127 302,-171z"/>
   <path class="fil8" d="M5001 3130c-6,-66 -41,-127 -82,-156 -60,-41 -102,-42 -179,-26 1,-8 254,163 261,182z"/>
   <g>
    <path class="fil9" d="M4445 4296c9,11 5,17 14,32 7,12 12,21 19,34 11,19 31,43 51,49 50,23 25,26 74,0 23,-12 52,-17 76,-25 29,-9 15,-18 42,-34 15,-9 -2,0 14,-6 102,-39 52,-145 39,-223 -13,-78 -34,-98 -28,-166l-21 0 -62 19c0,30 13,86 15,126 3,43 18,65 12,114 -89,9 -34,-185 -62,-239 -130,-23 -147,0 -170,85 -26,82 -20,141 -14,234z"/>
    <path class="fil8" d="M5042 3770c-11,16 -21,22 -43,33 -14,5 -60,33 -85,45 -22,10 -3,5 -33,15 -44,14 -33,13 -73,29l-34 13c-172,55 -359,-33 -538,-41 10,12 172,85 201,91 51,11 25,18 55,16 15,-1 13,-5 29,-9 2,0 4,0 6,0 3,0 7,0 10,0 1,0 3,0 4,0 2,0 5,0 7,0 15,0 32,0 44,0 73,0 31,12 92,-3 36,-9 48,-18 64,-10 105,112 221,315 103,431 -98,97 -298,114 -373,-19 -7,-12 -12,-21 -19,-34 -59,-152 39,-228 33,-356 -34,-33 -80,24 -135,101l41 23c17,31 -14,92 2,197 17,113 112,191 214,209 120,21 233,-17 306,-115 14,-19 18,-28 29,-49 36,-74 35,-161 6,-238 -1,-2 -3,-6 -3,-7 -13,-38 12,-53 46,-94 21,-25 116,-233 141,-283 46,17 6,26 40,34 8,-65 -91,-129 -109,-83 80,-1 58,33 26,63 -20,18 -44,35 -52,41z"/>
    <path class="fil10" d="M4216 3854c-48,-36 -6,-54 -2,-62 -23,-12 -56,19 -67,36 -15,23 -28,73 -5,96l5 -22c1,-16 -1,-40 13,-60 6,-8 1,-3 8,-8 32,26 93,202 230,263l-11 -21c20,-3 19,-3 29,-18 2,-2 8,-12 9,-12 52,-48 78,-89 203,-68 28,54 -27,247 62,239 6,-50 -9,-72 -12,-114 -2,-40 -15,-96 -15,-126l62 -19c11,-3 21,-7 26,-11 16,-12 2,-23 -24,-6 -18,11 -41,14 -57,18 -48,13 -27,4 -78,4 -46,-12 -162,4 -189,-23 77,5 211,23 290,-8 35,-14 27,0 82,-23l34 -13c40,-16 26,-14 70,-29 14,-4 54,-24 70,-31 1,0 81,-50 82,-51 8,-5 55,-40 80,-66 8,-9 10,-20 12,-24 -22,-6 -112,82 -138,97l-102 55c-5,2 -7,2 -11,4l-73 31c-1,0 -3,1 -4,1 -1,0 -3,1 -4,1 -5,2 -7,2 -12,4 -3,1 -9,3 -11,4 -115,42 -124,23 -160,34 -58,16 -119,-3 -178,-4 -31,-1 -25,-6 -53,-10 -23,-4 -7,2 -25,-7 -15,-6 -132,-49 -136,-52z"/>
    <path class="fil11" d="M4629 3978c28,54 -27,247 62,239 6,-50 -9,-72 -12,-114 -3,-40 -15,-96 -15,-126l62 -19c40,-17 36,-39 2,-17 -17,11 -41,14 -57,18 -48,13 -27,4 -78,4 -41,0 19,12 36,15z"/>
    <path class="fil12" d="M4529 4410c20,43 195,96 323,-29 34,-34 31,-57 52,-90 6,-47 18,-71 8,-124 -14,-76 -48,-129 -91,-179 -12,-15 -33,-31 -58,-42 -5,-2 -65,12 -17,10 -5,68 16,88 28,166 13,77 63,184 -39,223 -16,6 1,-3 -14,6 -27,16 -13,25 -42,34 -24,8 -54,13 -76,25 -49,26 -25,23 -74,0z"/>
    <path class="fil13" d="M4829 3933c42,72 70,103 129,53 15,-12 25,-27 35,-43 20,-33 45,-60 46,-117 -29,3 -192,84 -201,93 -10,10 -5,0 -10,15z"/>
    <path class="fil13" d="M4400 4060l22 -37c16,-27 25,-32 25,-54 -20,-14 -69,-21 -111,-33 -42,-12 -86,-38 -98,-39 -3,49 103,162 162,162z"/>
    <path class="fil14" d="M4571 4279c19,-24 20,-98 10,-135 -13,-48 -5,-2 -12,-62 -3,-30 2,-41 1,-63l-30 -2c-18,24 -15,31 -15,68 2,77 -29,131 10,183 13,17 7,14 36,12z"/>
   </g>
   <g>
    <path class="fil15" d="M6406 3337l5 5c35,33 16,63 -18,73l10 5c16,-13 44,-22 61,4 14,21 4,40 -14,58 3,25 4,32 -6,60 4,6 6,10 4,22 -2,9 -6,16 -11,21 -11,11 -23,13 -41,8l-89 41c-13,5 -19,4 -31,11 -7,50 -37,56 -74,28 -11,4 -21,8 -33,13 -13,6 -19,7 -34,12 -19,6 -46,18 -66,27 -6,40 -39,55 -70,27 -16,0 -138,55 -171,62 1,27 24,58 28,82l6 -1c-32,-44 44,-99 70,-26 21,-5 43,-15 62,-23 19,-9 45,-13 61,-24 -13,-18 -10,-49 17,-59 25,-9 53,9 52,33 14,-3 138,-49 144,-55 -9,-46 42,-67 73,-28 9,-1 63,-22 77,-29 28,-15 42,-28 67,-52 -40,-39 -6,-87 41,-67 25,-69 10,-128 -24,-171 -4,1 -3,1 -7,2 -43,15 -66,-15 -55,-51l-36 -7z"/>
    <path class="fil16" d="M5530 3987c1,10 6,25 13,34l104 -41c21,-7 34,-11 53,-20 17,-7 34,-15 54,-18 1,-12 -22,-72 -29,-81 -64,55 -79,65 -145,100 -17,9 -32,19 -50,27z"/>
    <path class="fil16" d="M5745 3851c8,15 26,58 29,77 12,1 52,-16 63,-20 -2,-15 -23,-66 -30,-82 -12,6 -45,11 -62,26z"/>
    <path class="fil17" d="M6376 3339c-12,6 -22,16 -24,34 -2,17 6,25 18,37l24 6c34,-10 53,-40 18,-73l-5 -5 -30 2z"/>
    <path class="fil15" d="M6258 3400c30,22 16,67 -19,68l2 20c13,-20 29,-23 52,-15l2 -24c-48,-48 45,-100 62,-41l13 2c-12,-12 -19,-20 -18,-37 2,-18 13,-27 24,-34 -20,0 -48,9 -63,15 -21,10 -39,21 -56,46z"/>
    <path class="fil16" d="M6381 3618c-56,-8 -63,71 -11,76 47,4 59,-69 11,-76z"/>
    <path class="fil16" d="M6503 3468c-51,-10 -64,64 -15,76 47,11 67,-66 15,-76z"/>
    <path class="fil18" d="M6163 3698c-58,3 -47,79 1,76 50,-2 48,-79 -1,-76z"/>
    <path class="fil19" d="M5984 3772c-51,-15 -69,57 -26,73 48,17 74,-59 26,-73z"/>
    <path class="fil17" d="M6241 3488c1,22 20,42 51,55 5,-5 11,-8 15,-16 4,-7 3,-7 5,-13l5 -9c-18,-17 -14,-12 -25,-31 -22,-8 -39,-5 -52,15z"/>
    <path class="fil17" d="M6057 3822c7,-1 62,-21 69,-26 0,-23 -28,-42 -52,-33 -27,10 -30,41 -17,59z"/>
    <path class="fil20" d="M5864 3895c20,-4 56,-18 70,-26 -26,-72 -102,-17 -70,26z"/>
    <path class="fil16" d="M6295 3449c7,-14 15,-25 27,-32 11,-6 22,-6 34,-9 -16,-59 -110,-7 -62,41z"/>
    <path class="fil21" d="M6403 3421c29,17 40,42 47,62 17,-17 27,-37 14,-58 -17,-26 -45,-17 -61,-4z"/>
    <path class="fil21" d="M6487 3631c18,-23 29,-38 41,-67 -46,-20 -80,28 -41,67z"/>
    <path class="fil20" d="M6270 3740c13,-1 23,-8 36,-13 15,-6 25,-6 37,-15 -31,-39 -83,-19 -73,28z"/>
    <path class="fil16" d="M6504 3393c-12,-20 -36,-38 -62,-48 -11,35 12,66 55,51 4,-2 3,-1 7,-2z"/>
    <path class="fil17" d="M6202 3673c37,28 66,22 74,-28 -13,3 -23,9 -36,14 -6,3 -11,5 -18,7 -9,3 -13,2 -21,7z"/>
    <path class="fil18" d="M6239 3469c34,-1 48,-46 19,-68 -13,21 -22,48 -19,68z"/>
    <path class="fil15" d="M6318 3504l-5 9c-2,6 -1,6 -5,13 -5,8 -10,11 -15,16 31,8 56,6 66,-30 -15,1 -23,2 -41,-9z"/>
    <path class="fil22" d="M6000 3751c31,28 63,14 70,-27 -11,1 -56,20 -70,27z"/>
    <path class="fil20" d="M6396 3593c18,5 30,3 41,-8 5,-5 10,-13 11,-21 2,-12 0,-16 -4,-22 -20,29 -27,31 -48,51z"/>
   </g>
   <path class="fil8" d="M4703 3314c-104,52 -31,192 65,149 97,-43 28,-196 -65,-149z"/>
   <g>
    <path class="fil15" d="M2759 3337l-5 5c-35,33 -16,63 18,73l-10 5c-16,-13 -44,-22 -61,4 -14,21 -4,40 14,58 -3,25 -4,32 6,60 -4,6 -6,10 -4,22 2,9 6,16 11,21 11,11 23,13 41,8l89 41c13,5 19,4 31,11 7,50 37,56 74,28 11,4 21,8 33,13 13,6 19,7 34,12 19,6 46,18 66,27 6,40 39,55 70,27 16,0 138,55 171,62 -1,27 -24,58 -28,82l-6 -1c32,-44 -44,-99 -70,-26 -21,-5 -43,-15 -62,-23 -19,-9 -45,-13 -61,-24 13,-18 10,-49 -17,-59 -25,-9 -53,9 -52,33 -14,-3 -138,-49 -144,-55 9,-46 -42,-67 -73,-28 -9,-1 -63,-22 -77,-29 -28,-15 -42,-28 -67,-52 40,-39 6,-87 -41,-67 -25,-69 -10,-128 24,-171 4,1 3,1 7,2 43,15 66,-15 55,-51l36 -7z"/>
    <path class="fil16" d="M3635 3987c-1,10 -6,25 -13,34l-104 -41c-21,-7 -34,-11 -53,-20 -17,-7 -34,-15 -54,-18 -1,-12 22,-72 29,-81 64,55 79,65 145,100 17,9 32,19 50,27z"/>
    <path class="fil16" d="M3421 3851c-8,15 -26,58 -29,77 -12,1 -52,-16 -63,-20 2,-15 23,-66 30,-82 12,6 45,11 62,26z"/>
    <path class="fil17" d="M2789 3339c12,6 22,16 24,34 2,17 -6,25 -18,37l-24 6c-34,-10 -53,-40 -18,-73l5 -5 30 2z"/>
    <path class="fil15" d="M2907 3400c-30,22 -16,67 19,68l-2 20c-13,-20 -29,-23 -52,-15l-2 -24c48,-48 -45,-100 -62,-41l-13 2c12,-12 19,-20 18,-37 -2,-18 -13,-27 -24,-34 20,0 48,9 63,15 21,10 39,21 56,46z"/>
    <path class="fil16" d="M2784 3618c56,-8 63,71 11,76 -47,4 -59,-69 -11,-76z"/>
    <path class="fil16" d="M2662 3468c51,-10 64,64 15,76 -47,11 -67,-66 -15,-76z"/>
    <path class="fil18" d="M3002 3698c58,3 47,79 -1,76 -50,-2 -48,-79 1,-76z"/>
    <path class="fil19" d="M3181 3772c51,-15 69,57 26,73 -48,17 -74,-59 -26,-73z"/>
    <path class="fil17" d="M2924 3488c-1,22 -20,42 -51,55 -5,-5 -11,-8 -15,-16 -4,-7 -3,-7 -5,-13l-5 -9c18,-17 14,-12 25,-31 22,-8 39,-5 52,15z"/>
    <path class="fil17" d="M3108 3822c-7,-1 -62,-21 -69,-26 0,-23 28,-42 52,-33 27,10 30,41 17,59z"/>
    <path class="fil20" d="M3301 3895c-20,-4 -56,-18 -70,-26 26,-72 102,-17 70,26z"/>
    <path class="fil16" d="M2870 3449c-7,-14 -15,-25 -27,-32 -11,-6 -22,-6 -34,-9 16,-59 110,-7 62,41z"/>
    <path class="fil21" d="M2762 3421c-29,17 -40,42 -47,62 -17,-17 -27,-37 -14,-58 17,-26 45,-17 61,-4z"/>
    <path class="fil21" d="M2678 3631c-18,-23 -29,-38 -41,-67 46,-20 80,28 41,67z"/>
    <path class="fil20" d="M2895 3740c-13,-1 -23,-8 -36,-13 -15,-6 -25,-6 -37,-15 31,-39 83,-19 73,28z"/>
    <path class="fil16" d="M2661 3393c12,-20 36,-38 62,-48 11,35 -12,66 -55,51 -4,-2 -3,-1 -7,-2z"/>
    <path class="fil17" d="M2963 3673c-37,28 -66,22 -74,-28 13,3 23,9 36,14 6,3 11,5 18,7 9,3 13,2 21,7z"/>
    <path class="fil18" d="M2926 3469c-34,-1 -48,-46 -19,-68 13,21 22,48 19,68z"/>
    <path class="fil15" d="M2847 3504l5 9c2,6 1,6 5,13 5,8 10,11 15,16 -31,8 -56,6 -66,-30 15,1 23,2 41,-9z"/>
    <path class="fil22" d="M3165 3751c-31,28 -63,14 -70,-27 11,1 56,20 70,27z"/>
    <path class="fil20" d="M2769 3593c-18,5 -30,3 -41,-8 -5,-5 -10,-13 -11,-21 -2,-12 0,-16 4,-22 20,29 27,31 48,51z"/>
   </g>
  </g>
  <g id="_2886652139392">
   <path class="fil23" d="M5986 2263l0 0zm-59 -208c16,21 12,26 7,47 -39,10 -57,-6 -46,-47l39 0zm300 159c7,-57 -102,-192 1,-234 115,-47 148,108 198,97 18,-29 1,-33 22,-64 35,-3 40,-7 45,29 7,57 -27,110 -95,92 -61,-16 -80,-118 -145,-101 -55,36 111,191 -12,234 -91,32 -137,-110 -192,-137 -27,61 86,161 4,231 -86,72 -146,-73 -180,-78 -56,-8 66,138 -24,212 -51,42 -113,-8 -139,-50 -25,-41 -1,-43 0,-43 62,-26 41,58 109,47 32,-72 -72,-184 18,-218 76,-28 110,44 140,74 7,7 10,12 22,15 92,19 -96,-216 38,-250 80,-20 122,142 191,144zm-374 -313c24,15 57,38 60,73 4,43 -30,60 -70,60 -25,-24 -41,-43 -47,-87 -121,6 -75,90 -145,71 -27,-50 44,-127 148,-128 11,-49 37,-75 84,-89l-5 47 53 14c1,-1 1,-3 1,-4 0,-1 1,-3 1,-4 5,-29 -4,-24 13,-48 49,18 132,109 65,162 -63,50 -108,-66 -135,-106 -8,11 -17,24 -23,39zm133 -123l50 -9c14,1 0,6 7,0l-14 -63c57,15 123,69 114,143 -80,58 -125,-15 -157,-72zm0 0c-20,9 -26,18 -42,20 -18,3 -39,-1 -61,2 19,-43 44,-65 90,-79 -3,-67 23,-98 78,-111l8 50 65 0 -15 -58 -36 -1c-2,0 -5,-1 -7,-1l-13 -3c48,-141 284,-79 233,-21 -43,26 -103,-42 -169,21 35,19 73,23 99,51 22,23 41,70 8,102 -72,72 -146,-70 -169,-83 -24,18 -17,25 -35,36 -12,8 -29,9 -50,20l15 56zm0 485c-16,-11 -18,-19 -31,-32 -70,-72 -195,-36 -186,68 4,46 25,70 28,113 0,0 -77,-97 -119,-24 -21,37 4,71 27,99 87,103 243,48 201,-130 23,15 81,82 154,36 74,-46 54,-111 42,-162 15,10 105,125 189,40 76,-76 -12,-158 -17,-213 47,31 86,130 174,104 39,-12 59,-33 71,-71 21,-65 0,-74 -25,-111 -86,0 -54,18 -94,47 -71,-135 -282,-114 -236,86 -30,-20 -50,-59 -85,-73 -59,-22 -78,19 -111,41 -6,-72 -51,-36 -31,-79 1,-1 126,41 126,-110 27,13 57,2 80,-14 31,-22 30,-31 30,-80 53,-12 94,-22 97,-87 2,-52 -25,-75 -61,-106 -1,-1 -3,-3 -4,-4 -1,-1 -3,-3 -4,-4 -1,-1 -3,-2 -4,-4 42,3 39,16 94,16 13,-19 79,-81 -24,-117 -81,-28 -186,-14 -227,54 -56,94 -65,32 -92,120 -16,50 -14,32 -50,59 -27,21 -23,32 -50,52 -32,23 -36,19 -58,52 -48,70 -47,0 -132,80 -111,105 2,179 55,118 21,-24 20,-45 61,-49 5,22 14,42 29,57 32,33 33,5 50,45 23,53 39,79 110,32 -8,33 -9,42 1,77 7,25 20,44 22,72z"/>
   <path class="fil24" d="M6227 2214c-69,-3 -111,-164 -191,-144 -134,34 54,269 -38,250 -12,-3 -15,-7 -22,-15 -30,-31 -64,-102 -140,-74 -90,33 14,146 -18,218 -69,11 -47,-73 -109,-47 0,0 -25,2 0,43 26,42 88,92 139,50 90,-74 -32,-219 24,-212 34,5 94,150 180,78 82,-69 -31,-170 -4,-231 55,27 101,169 192,137 123,-43 -43,-198 12,-234 65,-17 84,85 145,101 69,18 103,-36 95,-92 -5,-37 -10,-32 -45,-29 -21,31 -4,34 -22,64 -50,11 -83,-144 -198,-97 -104,42 5,177 -1,234z"/>
   <path class="fil23" d="M5465 2298c-16,-68 78,-157 -27,-350 -105,-195 -198,-173 -228,-209 7,-76 90,-22 124,-1 119,74 259,304 194,516 -13,41 -22,57 -63,45zm-184 -861c-32,-36 16,-87 128,7 138,115 111,338 43,365 -55,-31 -14,-55 -5,-115 8,-51 -3,-99 -24,-139 -19,-36 -52,-71 -84,-89 -14,-8 -51,-22 -58,-30zm139 223c0,37 -9,57 -16,86 -35,-8 -109,-79 -165,-79 -48,0 -86,74 -37,107 31,21 120,12 212,196 55,112 55,164 21,279 -24,80 77,142 117,14 64,-204 -12,-292 -86,-431 53,-14 126,-197 -1,-368 -106,-142 -253,-121 -221,-31 21,59 93,38 143,125 15,26 32,61 32,102z"/>
   <path class="fil23" d="M5882 1618c-28,47 -71,94 -102,125 -73,71 -87,97 -130,64 1,-65 243,-171 254,-439 2,-39 -12,-88 -11,-111 2,-37 41,-39 56,-9 52,104 -22,296 -66,370zm-6 -258c0,234 -259,384 -259,440 0,23 39,55 63,55 36,0 90,-60 113,-83 139,-139 228,-293 189,-509 -5,-28 -13,-67 -59,-67 -95,0 -47,97 -47,165z"/>
   <path class="fil25" d="M5883 1800c22,-4 43,1 61,-2 15,-3 22,-12 42,-20l-15 -56c21,-11 38,-13 50,-20 18,-11 11,-18 35,-36 23,13 97,155 169,83 32,-32 14,-79 -8,-102 -27,-28 -65,-32 -99,-51 66,-63 126,6 169,-21 50,-59 -186,-121 -233,21l13 3c2,0 5,1 7,1l36 1 15 58 -65 0 -8 -50c-55,14 -81,44 -78,111 -46,14 -71,35 -90,79z"/>
   <path class="fil23" d="M6226 2482c101,-17 228,54 239,72 15,27 -7,47 -43,37 -55,-16 -76,-54 -161,-54 -199,0 -338,223 -365,139 -8,-24 22,-41 40,-55 67,-55 176,-120 291,-139zm-303 244c24,0 103,-68 154,-97 261,-145 274,-5 356,-5 95,0 101,-125 -105,-169 -148,-32 -281,55 -396,132 -22,15 -58,41 -66,68 -9,29 20,72 57,72z"/>
   <path class="fil26" d="M5210 1738c30,37 123,14 228,209 104,194 10,282 27,350 41,13 50,-4 63,-45 66,-212 -75,-443 -194,-516 -34,-21 -117,-75 -124,1z"/>
   <path class="fil17" d="M5650 1808c43,33 58,7 130,-64 31,-31 74,-78 102,-125 44,-73 118,-266 66,-370 -15,-30 -54,-28 -56,9 -1,24 12,72 11,111 -11,269 -253,375 -254,439z"/>
   <path class="fil27" d="M6226 2482c-114,19 -223,84 -291,139 -17,14 -47,31 -40,55 27,84 166,-139 365,-139 85,0 106,38 161,54 36,10 58,-10 43,-37 -10,-18 -138,-89 -239,-72z"/>
   <path class="fil25" d="M5796 1946l-2 -58 59 12c6,-15 15,-28 23,-39 27,40 72,156 135,106 67,-53 -16,-144 -65,-162 -17,24 -8,19 -13,48 0,1 -1,3 -1,4 0,1 -1,3 -1,4l-53 -14 5 -47c-47,14 -73,39 -84,89 -105,1 -175,78 -148,128 70,19 24,-65 145,-71z"/>
   <path class="fil28" d="M5452 1808c68,-28 95,-250 -43,-365 -112,-93 -160,-43 -128,-7 7,8 44,22 58,30 32,18 65,53 84,89 21,40 31,88 24,139 -9,60 -49,84 5,115z"/>
   <path class="fil23" d="M6482 2350c109,-79 377,-6 388,79 -45,57 -50,-24 -185,-50 -146,-28 -212,66 -204,-29zm-33 15c0,86 104,39 196,39 124,0 128,71 212,71 8,0 110,-43 -20,-129 -139,-91 -388,-73 -388,19z"/>
   <path class="fil24" d="M6482 2350c-8,95 58,1 204,29 135,26 140,107 185,50 -11,-85 -279,-157 -388,-79z"/>
   <path class="fil23" d="M6466 3046l-35 -9c-4,-54 42,-90 -1,-150 -22,-31 -41,-20 -59,-37 -27,-25 -11,-58 28,-51 87,14 156,175 67,248zm-135 -234c0,111 86,31 86,141 0,34 -16,29 -16,63 0,78 133,101 133,-79 0,-85 -91,-173 -149,-173 -22,0 -55,25 -55,47z"/>
   <path class="fil24" d="M6371 2850c18,17 36,6 59,37 44,60 -3,96 1,150l35 9c89,-72 20,-233 -67,-248 -38,-6 -54,26 -28,51z"/>
   <path class="fil25" d="M5986 1778c32,57 77,130 157,72 8,-74 -58,-129 -114,-143l14 63c-7,5 7,1 -7,0l-50 9z"/>
   <path class="fil25" d="M5796 1946c6,44 22,63 47,87 40,1 74,-17 70,-60 -3,-35 -36,-59 -60,-73l11 76c-24,-6 -16,-21 -68,-30z"/>
   <path class="fil23" d="M6494 1734c-57,-20 -23,-77 22,-47 8,30 0,36 -22,47zm-61 -28c0,73 118,73 118,0 0,-91 -118,-68 -118,0z"/>
   <path class="fil23" d="M6617 2705c37,-35 54,17 36,36 -10,11 -27,14 -40,1 -22,-21 -4,-30 4,-38zm-42 21c0,75 118,70 118,-8 0,-68 -118,-80 -118,8z"/>
   <path class="fil23" d="M5615 1165c13,61 -37,57 -49,34 -16,-31 17,-47 49,-34zm-22 78c77,0 74,-118 0,-118 -72,0 -82,118 0,118z"/>
   <path class="fil23" d="M6678 2145c-66,3 -47,-45 -22,-53 46,-14 33,37 22,53zm-72 -23c0,75 120,69 116,-7 -4,-69 -116,-80 -116,7z"/>
   <path class="fil23" d="M6348 2365c-65,3 -47,-45 -22,-53 46,-14 33,37 22,53zm-72 -23c0,75 120,69 116,-7 -4,-69 -116,-80 -116,7z"/>
   <path class="fil23" d="M6785 2617c-36,26 -69,13 -45,-40l40 1 5 39zm-85 -8c0,22 33,49 56,51 66,4 102,-114 -9,-114 -25,0 -47,34 -47,63z"/>
   <path class="fil23" d="M5148 1526c24,-10 24,1 36,5l1 36c-18,10 -47,20 -53,-11 -2,-14 7,-26 16,-30zm68 31c0,-118 -170,-46 -101,30 17,19 36,24 55,19 24,-6 45,-29 45,-49z"/>
   <path class="fil23" d="M5711 1463c31,-35 70,12 39,39 -24,21 -63,-13 -39,-39zm79 24c0,-118 -170,-46 -101,30 44,49 101,2 101,-30z"/>
   <path class="fil23" d="M5796 1946c52,9 44,24 68,30l-11 -76 -59 -12 2 58z"/>
   <path class="fil29" d="M5711 1463c-24,27 15,60 39,39 31,-27 -8,-74 -39,-39z"/>
   <path class="fil24" d="M5615 1165c-32,-14 -65,2 -49,34 12,23 62,28 49,-34z"/>
   <path class="fil26" d="M6617 2705c-8,8 -26,17 -4,38 13,12 30,9 40,-1 18,-19 1,-71 -36,-36z"/>
   <path class="fil28" d="M6348 2365c11,-16 24,-67 -22,-53 -25,8 -43,55 22,53z"/>
   <path class="fil28" d="M6678 2145c11,-16 24,-67 -22,-53 -25,8 -44,55 22,53z"/>
   <path class="fil26" d="M6785 2617l-5 -39 -40 -1c-25,53 9,66 45,40z"/>
   <path class="fil29" d="M5185 1566l-1 -36c-12,-4 -12,-15 -36,-5 -9,4 -18,16 -16,30 6,31 35,21 53,11z"/>
   <path class="fil24" d="M6494 1734c22,-11 29,-17 22,-47 -45,-30 -79,28 -22,47z"/>
   <path class="fil28" d="M5888 2055c-11,41 7,57 46,47 5,-21 9,-26 -7,-47l-39 0z"/>
  </g>
  <g id="_2886563913584">
   <path class="fil23" d="M3211 2263l0 0zm59 -208c-16,21 -12,26 -7,47 39,10 57,-6 46,-47l-39 0zm-300 159c-7,-57 102,-192 -1,-234 -115,-47 -148,108 -198,97 -18,-29 -1,-33 -22,-64 -35,-3 -40,-7 -45,29 -7,57 27,110 95,92 61,-16 80,-118 145,-101 55,36 -111,191 12,234 91,32 137,-110 192,-137 27,61 -86,161 -4,231 86,72 146,-73 180,-78 56,-8 -66,138 24,212 51,42 113,-8 139,-50 25,-41 1,-43 0,-43 -62,-26 -41,58 -109,47 -32,-72 72,-184 -18,-218 -76,-28 -110,44 -140,74 -7,7 -10,12 -22,15 -92,19 96,-216 -38,-250 -80,-20 -122,142 -191,144zm374 -313c-24,15 -57,38 -60,73 -4,43 30,60 70,60 25,-24 41,-43 47,-87 121,6 75,90 145,71 27,-50 -44,-127 -148,-128 -11,-49 -37,-75 -84,-89l5 47 -53 14c-1,-1 -1,-3 -1,-4 0,-1 -1,-3 -1,-4 -5,-29 4,-24 -13,-48 -49,18 -132,109 -65,162 63,50 108,-66 135,-106 8,11 17,24 23,39zm-133 -123l-50 -9c-14,1 0,6 -7,0l14 -63c-57,15 -123,69 -114,143 80,58 125,-15 157,-72zm0 0c20,9 26,18 42,20 18,3 39,-1 61,2 -19,-43 -44,-65 -90,-79 3,-67 -23,-98 -78,-111l-8 50 -65 0 15 -58 36 -1c2,0 5,-1 7,-1l13 -3c-48,-141 -284,-79 -233,-21 43,26 103,-42 169,21 -35,19 -73,23 -99,51 -22,23 -41,70 -8,102 72,72 146,-70 169,-83 24,18 17,25 35,36 12,8 29,9 50,20l-15 56zm0 485c16,-11 18,-19 31,-32 70,-72 195,-36 186,68 -4,46 -25,70 -28,113 0,0 77,-97 119,-24 21,37 -4,71 -27,99 -87,103 -243,48 -201,-130 -23,15 -81,82 -154,36 -74,-46 -54,-111 -42,-162 -15,10 -105,125 -189,40 -76,-76 12,-158 17,-213 -47,31 -86,130 -174,104 -39,-12 -59,-33 -71,-71 -21,-65 0,-74 25,-111 86,0 54,18 94,47 71,-135 282,-114 236,86 30,-20 50,-59 85,-73 59,-22 78,19 111,41 6,-72 51,-36 31,-79 -1,-1 -126,41 -126,-110 -27,13 -57,2 -80,-14 -31,-22 -30,-31 -30,-80 -53,-12 -94,-22 -97,-87 -2,-52 25,-75 61,-106 1,-1 3,-3 4,-4 1,-1 3,-3 4,-4 1,-1 3,-2 4,-4 -42,3 -39,16 -94,16 -13,-19 -79,-81 24,-117 81,-28 186,-14 227,54 56,94 65,32 92,120 16,50 14,32 50,59 27,21 23,32 50,52 32,23 36,19 58,52 48,70 47,0 132,80 111,105 -2,179 -55,118 -21,-24 -20,-45 -61,-49 -5,22 -14,42 -29,57 -32,33 -33,5 -50,45 -23,53 -39,79 -110,32 8,33 9,42 -1,77 -7,25 -20,44 -22,72z"/>
   <path class="fil24" d="M2970 2214c69,-3 111,-164 191,-144 134,34 -54,269 38,250 12,-3 15,-7 22,-15 30,-31 64,-102 140,-74 90,33 -14,146 18,218 69,11 47,-73 109,-47 0,0 25,2 0,43 -26,42 -88,92 -139,50 -90,-74 32,-219 -24,-212 -34,5 -94,150 -180,78 -82,-69 31,-170 4,-231 -55,27 -101,169 -192,137 -123,-43 43,-198 -12,-234 -65,-17 -84,85 -145,101 -69,18 -103,-36 -95,-92 5,-37 10,-32 45,-29 21,31 4,34 22,64 50,11 83,-144 198,-97 104,42 -5,177 1,234z"/>
   <path class="fil23" d="M3732 2298c16,-68 -78,-157 27,-350 105,-195 198,-173 228,-209 -7,-76 -90,-22 -124,-1 -119,74 -259,304 -194,516 13,41 22,57 63,45zm184 -861c32,-36 -16,-87 -128,7 -138,115 -111,338 -43,365 55,-31 14,-55 5,-115 -8,-51 3,-99 24,-139 19,-36 52,-71 84,-89 14,-8 51,-22 58,-30zm-139 223c0,37 9,57 16,86 35,-8 109,-79 165,-79 48,0 86,74 37,107 -31,21 -120,12 -212,196 -55,112 -55,164 -21,279 24,80 -77,142 -117,14 -64,-204 12,-292 86,-431 -53,-14 -126,-197 1,-368 106,-142 253,-121 221,-31 -21,59 -93,38 -143,125 -15,26 -32,61 -32,102z"/>
   <path class="fil23" d="M3315 1618c28,47 71,94 102,125 73,71 87,97 130,64 -1,-65 -243,-171 -254,-439 -2,-39 12,-88 11,-111 -2,-37 -41,-39 -56,-9 -52,104 22,296 66,370zm6 -258c0,234 259,384 259,440 0,23 -39,55 -63,55 -36,0 -90,-60 -113,-83 -139,-139 -228,-293 -189,-509 5,-28 13,-67 59,-67 95,0 47,97 47,165z"/>
   <path class="fil25" d="M3314 1800c-22,-4 -43,1 -61,-2 -15,-3 -22,-12 -42,-20l15 -56c-21,-11 -38,-13 -50,-20 -18,-11 -11,-18 -35,-36 -23,13 -97,155 -169,83 -32,-32 -14,-79 8,-102 27,-28 65,-32 99,-51 -66,-63 -126,6 -169,-21 -50,-59 186,-121 233,21l-13 3c-2,0 -5,1 -7,1l-36 1 -15 58 65 0 8 -50c55,14 81,44 78,111 46,14 71,35 90,79z"/>
   <path class="fil23" d="M2971 2482c-101,-17 -228,54 -239,72 -15,27 7,47 43,37 55,-16 76,-54 161,-54 199,0 338,223 365,139 8,-24 -22,-41 -40,-55 -67,-55 -176,-120 -291,-139zm303 244c-24,0 -103,-68 -154,-97 -261,-145 -274,-5 -356,-5 -95,0 -101,-125 105,-169 148,-32 281,55 396,132 22,15 58,41 66,68 9,29 -20,72 -57,72z"/>
   <path class="fil26" d="M3987 1738c-30,37 -123,14 -228,209 -104,194 -10,282 -27,350 -41,13 -50,-4 -63,-45 -66,-212 75,-443 194,-516 34,-21 117,-75 124,1z"/>
   <path class="fil17" d="M3547 1808c-43,33 -58,7 -130,-64 -31,-31 -74,-78 -102,-125 -44,-73 -118,-266 -66,-370 15,-30 54,-28 56,9 1,24 -12,72 -11,111 11,269 253,375 254,439z"/>
   <path class="fil27" d="M2971 2482c114,19 223,84 291,139 17,14 47,31 40,55 -27,84 -166,-139 -365,-139 -85,0 -106,38 -161,54 -36,10 -58,-10 -43,-37 10,-18 138,-89 239,-72z"/>
   <path class="fil25" d="M3401 1946l2 -58 -59 12c-6,-15 -15,-28 -23,-39 -27,40 -72,156 -135,106 -67,-53 16,-144 65,-162 17,24 8,19 13,48 0,1 1,3 1,4 0,1 1,3 1,4l53 -14 -5 -47c47,14 73,39 84,89 105,1 175,78 148,128 -70,19 -24,-65 -145,-71z"/>
   <path class="fil28" d="M3745 1808c-68,-28 -95,-250 43,-365 112,-93 160,-43 128,-7 -7,8 -44,22 -58,30 -32,18 -65,53 -84,89 -21,40 -31,88 -24,139 9,60 49,84 -5,115z"/>
   <path class="fil23" d="M2715 2350c-109,-79 -377,-6 -388,79 45,57 50,-24 185,-50 146,-28 212,66 204,-29zm33 15c0,86 -104,39 -196,39 -124,0 -128,71 -212,71 -8,0 -110,-43 20,-129 139,-91 388,-73 388,19z"/>
   <path class="fil24" d="M2715 2350c8,95 -58,1 -204,29 -135,26 -140,107 -185,50 11,-85 279,-157 388,-79z"/>
   <path class="fil23" d="M2731 3046l35 -9c4,-54 -42,-90 1,-150 22,-31 41,-20 59,-37 27,-25 11,-58 -28,-51 -87,14 -156,175 -67,248zm135 -234c0,111 -86,31 -86,141 0,34 16,29 16,63 0,78 -133,101 -133,-79 0,-85 91,-173 149,-173 22,0 55,25 55,47z"/>
   <path class="fil24" d="M2826 2850c-18,17 -36,6 -59,37 -44,60 3,96 -1,150l-35 9c-89,-72 -20,-233 67,-248 38,-6 54,26 28,51z"/>
   <path class="fil25" d="M3211 1778c-32,57 -77,130 -157,72 -8,-74 58,-129 114,-143l-14 63c7,5 -7,1 7,0l50 9z"/>
   <path class="fil25" d="M3401 1946c-6,44 -22,63 -47,87 -40,1 -74,-17 -70,-60 3,-35 36,-59 60,-73l-11 76c24,-6 16,-21 68,-30z"/>
   <path class="fil23" d="M2703 1734c57,-20 23,-77 -22,-47 -8,30 0,36 22,47zm61 -28c0,73 -118,73 -118,0 0,-91 118,-68 118,0z"/>
   <path class="fil23" d="M2580 2705c-37,-35 -54,17 -36,36 10,11 27,14 40,1 22,-21 4,-30 -4,-38zm42 21c0,75 -118,70 -118,-8 0,-68 118,-80 118,8z"/>
   <path class="fil23" d="M3582 1165c-13,61 37,57 49,34 16,-31 -17,-47 -49,-34zm22 78c-77,0 -74,-118 0,-118 72,0 82,118 0,118z"/>
   <path class="fil23" d="M2519 2145c66,3 47,-45 22,-53 -46,-14 -33,37 -22,53zm72 -23c0,75 -120,69 -116,-7 4,-69 116,-80 116,7z"/>
   <path class="fil23" d="M2849 2365c65,3 47,-45 22,-53 -46,-14 -33,37 -22,53zm72 -23c0,75 -120,69 -116,-7 4,-69 116,-80 116,7z"/>
   <path class="fil23" d="M2412 2617c36,26 69,13 45,-40l-40 1 -5 39zm85 -8c0,22 -33,49 -56,51 -66,4 -102,-114 9,-114 25,0 47,34 47,63z"/>
   <path class="fil23" d="M4049 1526c-24,-10 -24,1 -36,5l-1 36c18,10 47,20 53,-11 2,-14 -7,-26 -16,-30zm-68 31c0,-118 170,-46 101,30 -17,19 -36,24 -55,19 -24,-6 -45,-29 -45,-49z"/>
   <path class="fil23" d="M3486 1463c-31,-35 -70,12 -39,39 24,21 63,-13 39,-39zm-79 24c0,-118 170,-46 101,30 -44,49 -101,2 -101,-30z"/>
   <path class="fil23" d="M3401 1946c-52,9 -44,24 -68,30l11 -76 59 -12 -2 58z"/>
   <path class="fil29" d="M3486 1463c24,27 -15,60 -39,39 -31,-27 8,-74 39,-39z"/>
   <path class="fil24" d="M3582 1165c32,-14 65,2 49,34 -12,23 -62,28 -49,-34z"/>
   <path class="fil26" d="M2580 2705c8,8 26,17 4,38 -13,12 -30,9 -40,-1 -18,-19 -1,-71 36,-36z"/>
   <path class="fil28" d="M2849 2365c-11,-16 -24,-67 22,-53 25,8 43,55 -22,53z"/>
   <path class="fil28" d="M2519 2145c-11,-16 -24,-67 22,-53 25,8 44,55 -22,53z"/>
   <path class="fil26" d="M2412 2617l5 -39 40 -1c25,53 -9,66 -45,40z"/>
   <path class="fil29" d="M4012 1566l1 -36c12,-4 12,-15 36,-5 9,4 18,16 16,30 -6,31 -35,21 -53,11z"/>
   <path class="fil24" d="M2703 1734c-22,-11 -29,-17 -22,-47 45,-30 79,28 22,47z"/>
   <path class="fil28" d="M3309 2055c11,41 -7,57 -46,47 -5,-21 -9,-26 7,-47l39 0z"/>
  </g>
 </g>
</svg>
