<?xml version="1.0" encoding="UTF-8"?>
<!DOCTYPE svg PUBLIC "-//W3C//DTD SVG 1.1//EN" "http://www.w3.org/Graphics/SVG/1.1/DTD/svg11.dtd">
<!-- Creator: CorelDRAW 2017 -->
<svg xmlns="http://www.w3.org/2000/svg" xml:space="preserve" width="110mm" height="60mm" version="1.1" style="shape-rendering:geometricPrecision; text-rendering:geometricPrecision; image-rendering:optimizeQuality; fill-rule:evenodd; clip-rule:evenodd"
viewBox="0 0 11000 6000"
 xmlns:xlink="http://www.w3.org/1999/xlink">
 <defs>
  <style type="text/css">
   <![CDATA[
    .fil0 {fill:#EE3737}
    .fil2 {fill:#74C054}
    .fil1 {fill:#34B778}
    .fil7 {fill:#190812}
    .fil6 {fill:#2B2C2C}
    .fil9 {fill:#491629}
    .fil11 {fill:#660605}
    .fil3 {fill:#F2433B}
    .fil10 {fill:#F33A6D}
    .fil8 {fill:#F45B96}
    .fil5 {fill:#FAFBFB}
    .fil12 {fill:#FE74AC}
    .fil4 {fill:#FFDB56}
    .fil13 {fill:#EE3737;fill-rule:nonzero}
    .fil14 {fill:#EE3737;fill-rule:nonzero}
    .fil15 {fill:#EE3737;fill-rule:nonzero}
   ]]>
  </style>
 </defs>
 <g id="Camada_x0020_1">
  <metadata id="CorelCorpID_0Corel-Layer"/>
  <path class="fil0" d="M2667 2282c27,40 61,88 89,126 67,94 65,101 134,118l0 0 -1 -807c-82,0 -135,-12 -192,-36 -429,-182 -338,-758 184,-801l6 -269c-589,-20 -967,580 -662,1037 146,213 300,419 442,632z"/>
  <path class="fil0" d="M3121 2282c-26,41 -59,90 -85,129 -53,80 -75,91 -118,106 -9,3 -18,6 -29,10l-14 -109 -11 -363 3 -336c558,-16 645,-801 -7,-836l-16 -268c15,0 29,-1 43,-1 611,11 921,597 656,1023 -85,133 -173,263 -260,394 -55,83 -110,167 -163,252z"/>
  <path class="fil1" d="M2885 2761c0,8 -1,8 1,8 32,1 116,0 167,0 263,-22 605,-93 761,-205 165,-118 132,-269 -33,-377 -116,-76 -329,-117 -505,-142 -2,-1 -3,-1 -3,-1 0,0 -2,3 -4,6 -1,1 -1,2 -2,3 0,0 0,1 -1,1 -2,2 -3,4 -4,6 -17,24 -51,68 -86,123 -1,1 -2,3 -3,4 -2,2 -3,5 -5,7 -6,9 -12,18 -19,27 -31,47 -66,97 -99,144 -3,4 -5,7 -8,11 -5,7 -10,14 -15,20 -8,12 -17,23 -25,34 -21,30 -36,51 -50,64 -8,8 -24,19 -36,23 0,0 -1,0 -1,0 0,0 0,0 -1,0 -1,0 -1,0 -2,1 -1,0 -3,1 -4,1 -9,3 -21,5 -26,11 -41,50 -6,156 -1,231z"/>
  <path class="fil2" d="M2885 2769c0,-98 15,-235 4,-242 -160,-108 -253,-332 -391,-489 -166,0 -524,110 -615,243 -212,310 454,443 713,473 51,6 260,25 289,15z"/>
  <path class="fil3" d="M4443 2368c-3,5 -1,1 -5,9 -32,64 -37,129 20,181 20,19 55,36 82,49 20,10 73,36 94,38l333 -71c114,-28 216,-55 321,-87 98,-30 495,-163 599,-218 -5,-21 -20,-53 -29,-75 -11,-28 -20,-50 -31,-78l-62 -151c-19,2 -132,53 -154,64 -100,49 -365,137 -473,172 -162,52 -343,98 -515,134l-179 34z"/>
  <path class="fil3" d="M4674 1791c-3,5 -1,1 -5,9l-109 272c-8,19 -34,78 -36,97 79,-5 549,-150 607,-170 212,-74 301,-113 489,-192 18,-8 57,-22 66,-34 -6,-25 -20,-54 -30,-79l-65 -162c-10,-26 -21,-57 -32,-81l-106 48c-156,77 -383,164 -548,219l-231 73z"/>
  <path class="fil4" d="M4633 2645c4,4 1,2 8,6 46,22 228,57 283,63 19,2 32,3 54,5 172,18 356,11 516,-12 78,-11 123,-23 196,-44 60,-18 202,-71 239,-120 15,-20 31,-58 26,-96 -3,-22 -56,-155 -68,-178 -104,55 -501,188 -599,218 -105,32 -208,59 -321,87l-333 71z"/>
  <path class="fil4" d="M4524 2169c-12,12 -36,80 -43,97 -12,31 -32,71 -39,102l179 -34c172,-37 353,-82 515,-134 108,-35 373,-123 473,-172 22,-11 135,-62 154,-64l-37 -95c-6,-16 -12,-31 -19,-49 -4,-10 -5,-13 -9,-23l-12 -25c-9,12 -48,26 -66,34 -188,79 -277,117 -489,192 -58,20 -528,165 -607,170z"/>
  <path class="fil3" d="M4938 1135c-10,18 -15,36 -22,53l-146 367 21 -2c209,-72 506,-202 688,-298 -7,-28 -91,-232 -110,-280 -7,-17 -9,-28 -17,-42 -68,36 -135,72 -203,106 -66,33 -143,70 -210,96z"/>
  <path class="fil4" d="M4769 1555c-10,12 -40,94 -48,115l-47 121 231 -73c165,-55 393,-142 548,-219l106 -48c-7,-14 -13,-32 -19,-49l-40 -97c-3,-8 -6,-16 -10,-26 0,-1 -5,-11 -5,-13 -5,-11 -2,-5 -7,-11 -182,97 -479,226 -688,298l-21 2z"/>
  <path class="fil4" d="M4938 1135c68,-26 144,-63 210,-96 68,-34 135,-70 203,-106 -4,-17 -14,-39 -21,-56l-69 -171c-23,5 -45,18 -77,18 -33,0 -52,-14 -77,-18 -11,46 -165,404 -168,429z"/>
  <path class="fil3" d="M5106 706c25,4 44,18 77,18 32,0 54,-13 77,-18 124,-66 109,-241 -11,-293 -9,-4 -19,-6 -29,-6l-43 0c-56,0 -65,5 -98,32 -80,67 -82,194 27,267z"/>
  <path class="fil5" d="M5205 1486c3,-17 10,-25 12,-46 2,-24 -3,-36 -5,-57 -4,-10 -12,-25 -11,-35 -14,-11 -10,-27 -42,-56 -55,-52 -146,-29 -138,83 7,105 109,175 162,134 9,-5 18,-18 22,-24z"/>
  <path class="fil5" d="M5224 1475c9,73 139,51 132,-81 -2,-40 -32,-84 -77,-62 -37,4 -61,67 -55,143z"/>
  <path class="fil6" d="M5195 1517c46,-65 33,-75 16,-49 -2,3 -5,13 -7,17 -36,70 -171,21 -182,-110 -8,-112 83,-129 138,-77 31,30 60,157 63,145 28,-10 -46,-176 -101,-183 -90,-31 -146,80 -94,184 9,17 19,34 32,49 24,26 46,35 69,38 20,3 43,4 65,-14z"/>
  <path class="fil6" d="M5217 1391c3,24 9,41 10,51 4,53 -20,-86 49,-106 45,-22 76,19 79,59 7,132 -122,153 -131,81 2,0 -1,-5 -2,-11 -2,-9 9,-26 6,-41 -2,-23 -10,-39 -18,-46 2,20 4,37 3,61 0,11 -1,19 -4,28 -5,19 -4,37 46,59 20,8 42,0 56,-9 96,-63 58,-230 -33,-192 -12,5 -61,52 -59,66z"/>
  <path class="fil7" d="M5104 1412c-56,28 -17,102 35,80 52,-23 15,-104 -35,-80z"/>
  <path class="fil7" d="M5133 1169c-24,-22 -88,-20 -117,-6 -32,15 -61,55 -44,97 49,-89 67,-68 161,-91z"/>
  <path class="fil7" d="M5409 1322c-3,-35 -22,-68 -44,-83 -32,-22 -54,-23 -95,-14 1,-4 136,87 139,97z"/>
  <g id="_1385225462368">
   <path class="fil8" d="M5112 1945c5,6 3,9 7,17 4,7 6,11 10,18 6,10 17,23 27,26 27,12 13,14 40,0 12,-6 28,-9 41,-13 15,-5 8,-10 22,-18 8,-5 -1,0 7,-3 54,-21 28,-78 21,-119 -7,-42 -18,-53 -15,-89l-11 0 -33 10c0,16 7,46 8,67 1,23 10,35 6,61 -47,5 -18,-99 -33,-127 -69,-12 -79,0 -91,46 -14,44 -10,75 -7,125z"/>
   <path class="fil7" d="M5431 1664c-6,9 -11,12 -23,17 -7,3 -32,18 -46,24 -12,5 -2,3 -18,8 -24,8 -17,7 -39,16l-18 7c-92,29 -192,-17 -287,-22 5,6 92,45 108,49 27,6 13,10 29,9 8,0 7,-3 15,-5 1,0 2,0 3,0 2,0 3,0 5,0 1,0 1,0 2,0 1,0 3,0 4,0 8,0 17,0 23,0 39,0 17,7 49,-2 19,-5 26,-10 34,-5 56,60 118,168 55,230 -53,52 -159,61 -199,-10 -4,-7 -6,-11 -10,-18 -32,-81 21,-122 18,-190 -18,-18 -42,13 -72,54l22 12c9,17 -7,49 1,105 9,60 60,102 114,111 64,11 124,-9 163,-62 8,-10 10,-15 16,-26 19,-40 19,-86 3,-127 0,-1 -1,-3 -2,-4 -7,-20 7,-28 24,-50 11,-14 62,-124 75,-151 25,9 3,14 21,18 4,-35 -49,-69 -58,-44 43,0 31,18 14,34 -11,10 -24,19 -28,22z"/>
   <path class="fil7" d="M4990 1708c-25,-19 -3,-29 -1,-33 -12,-6 -30,10 -36,19 -8,12 -15,39 -3,51l3 -12c1,-9 -1,-21 7,-32 3,-4 1,-2 4,-4 17,14 50,108 123,140l-6 -11c11,-2 10,-1 16,-9 1,-1 4,-6 5,-7 28,-26 42,-48 109,-36 15,29 -14,132 33,127 3,-26 -5,-38 -6,-61 -1,-21 -8,-51 -8,-67l33 -10c6,-2 11,-4 14,-6 8,-6 1,-12 -13,-3 -9,6 -22,7 -31,10 -26,7 -15,2 -41,2 -25,-6 -87,2 -101,-12 41,3 113,12 155,-4 19,-7 14,0 44,-12l18 -7c21,-8 14,-8 38,-15 7,-2 29,-13 37,-16 1,0 43,-27 44,-27 4,-3 29,-21 42,-35 4,-5 6,-11 7,-13 -12,-3 -60,44 -73,52l-54 29c-3,1 -3,1 -6,2l-39 17c-1,0 -1,0 -2,1 -1,0 -1,0 -2,1 -3,1 -4,1 -6,2 -2,1 -5,2 -6,2 -61,22 -66,13 -85,18 -31,9 -63,-2 -95,-2 -17,0 -13,-3 -28,-5 -12,-2 -4,1 -13,-4 -8,-3 -71,-26 -73,-28z"/>
   <path class="fil9" d="M5210 1775c15,29 -14,132 33,127 3,-26 -5,-38 -6,-61 -1,-21 -8,-51 -8,-67l33 -10c21,-9 19,-21 1,-9 -9,6 -22,8 -31,10 -26,7 -15,2 -41,2 -22,0 10,6 19,8z"/>
   <path class="fil10" d="M5157 2005c11,23 104,51 172,-16 18,-18 17,-30 28,-48 3,-25 10,-38 5,-66 -7,-40 -26,-69 -48,-96 -7,-8 -18,-17 -31,-22 -3,-1 -35,6 -9,5 -3,36 8,47 15,89 7,41 33,98 -21,119 -9,3 0,-1 -7,3 -14,9 -7,13 -22,18 -13,4 -29,7 -41,13 -26,14 -13,12 -40,0z"/>
   <path class="fil11" d="M5317 1751c23,38 37,55 69,28 8,-7 13,-14 19,-23 11,-18 24,-32 25,-63 -15,2 -102,45 -107,49 -5,5 -2,0 -6,8z"/>
   <path class="fil11" d="M5088 1819l12 -20c8,-14 13,-17 13,-29 -11,-8 -37,-11 -59,-17 -23,-6 -46,-20 -52,-21 -2,26 55,87 87,87z"/>
   <path class="fil12" d="M5179 1936c10,-13 11,-52 5,-72 -7,-25 -3,-1 -6,-33 -2,-16 1,-22 0,-34l-16 -1c-10,13 -8,16 -8,37 1,41 -15,70 5,97 7,9 4,8 19,6z"/>
  </g>
  <path class="fil7" d="M5250 1420c-56,28 -17,102 35,80 52,-23 15,-104 -35,-80z"/>
  <g id="_1385225461056">
   <path class="fil13" d="M2120 633l-37 812c-34,-5 -88,-11 -163,-19 -46,-3 -120,-5 -223,-7 -5,51 -14,173 -26,368 -9,188 -24,465 -45,830l-624 0c-7,-174 -19,-447 -37,-820 -8,-129 -17,-255 -26,-378l-205 7 -186 19 -32 -812 1605 0zm7357 0l-30 835c-8,238 -13,599 -13,1082 -220,79 -445,119 -674,119 -282,0 -497,-56 -645,-169 -125,-96 -213,-244 -265,-446 -30,-116 -58,-329 -85,-638 -26,-286 -41,-546 -48,-782l833 0c-4,114 -10,299 -16,555 -3,143 -2,346 3,608 1,200 18,334 52,404 36,74 106,111 212,111 30,0 64,-9 101,-26 0,-177 -5,-459 -15,-846 -8,-194 -23,-463 -46,-807l634 0zm-7587 3272l-53 812c-32,-5 -99,-12 -202,-22 -62,-2 -134,-4 -219,-5l-22 415c88,2 224,-5 408,-19 -9,39 -22,103 -40,191 -10,52 -20,115 -31,189 -24,-5 -79,-13 -165,-23 -64,-5 -127,-7 -189,-5l-10 449 -724 0 -40 -1012c-7,-232 -26,-556 -58,-971l1346 0zm2953 812c-64,-14 -112,-21 -145,-21 -41,0 -78,14 -111,41 -41,33 -61,77 -61,130 0,41 37,121 111,239 74,118 111,226 111,325 0,144 -55,262 -164,353 -104,89 -233,133 -386,133 -141,0 -245,-10 -312,-30 -7,-40 -21,-104 -40,-193 -12,-48 -29,-112 -50,-192 95,23 158,34 191,34 128,0 192,-48 192,-146 0,-70 -26,-134 -78,-189 -85,-74 -169,-148 -253,-223 -163,-145 -245,-316 -245,-515 0,-207 78,-364 232,-471 135,-93 315,-139 540,-139 127,0 270,19 428,56l40 809zm5460 -812c-48,204 -97,437 -148,698 -25,119 -50,237 -75,357 -28,133 -41,224 -41,272 0,14 1,25 3,33 -4,1 -50,6 -138,15 -49,6 -102,14 -158,23 -21,-140 -57,-370 -108,-689 -30,-145 -76,-382 -138,-711l804 0zm-143 1784c0,67 -29,124 -86,170 -57,46 -124,69 -200,69 -81,0 -151,-23 -209,-69 -58,-46 -87,-103 -87,-172 0,-70 28,-127 85,-171 56,-45 127,-67 212,-67 77,0 143,22 199,66 58,47 86,104 86,174z"/>
   <path class="fil14" d="M7633 1577c0,212 -39,403 -116,575 -82,183 -198,312 -346,386 32,32 77,74 134,126 79,60 149,105 209,136 -32,32 -85,79 -158,141 -42,29 -100,62 -174,98 -62,-49 -112,-99 -152,-149 -47,-60 -80,-112 -100,-156 19,-17 48,-54 87,-110 -84,35 -167,53 -251,53 -264,0 -478,-111 -642,-333 -154,-208 -231,-464 -231,-767 0,-326 84,-582 252,-766 157,-173 364,-260 621,-260 252,0 456,87 615,262 168,185 252,439 252,763zm-621 232c0,-239 -79,-359 -237,-359 -85,0 -148,36 -191,107 -37,63 -54,148 -50,254 4,99 26,189 64,270 46,94 102,141 169,141 66,0 125,-48 175,-143 46,-87 70,-177 70,-270zm3468 -1176l-51 1055c-10,227 -21,536 -34,928l-724 0 -87 -1983 896 0zm-7057 3272l-56 817c-32,-5 -101,-14 -207,-27 -72,-7 -152,-11 -237,-13l-19 246c95,3 249,0 464,-7 -9,32 -25,92 -45,178 -12,53 -22,113 -32,182 -25,-6 -87,-14 -187,-24 -47,-3 -115,-4 -207,-3l-13 288c65,-1 183,-7 356,-17 33,-3 87,-13 162,-31 -7,27 -23,91 -48,193 -12,52 -27,119 -45,199l-1155 0 -37 -1012c-7,-231 -24,-555 -50,-971l1356 0zm3176 0l-37 812c-34,-5 -88,-11 -163,-19 -46,-3 -120,-5 -223,-7 -5,51 -14,173 -26,368 -9,188 -24,465 -45,830l-624 0c-7,-174 -19,-447 -37,-820 -8,-129 -17,-255 -26,-378l-205 7 -186 19 -32 -812 1605 0zm2602 812c-64,-14 -112,-21 -145,-21 -41,0 -78,14 -111,41 -41,33 -61,77 -61,130 0,41 37,121 111,239 74,118 111,226 111,325 0,144 -55,262 -164,353 -104,89 -233,133 -386,133 -141,0 -245,-10 -312,-30 -7,-40 -21,-104 -40,-193 -12,-48 -29,-112 -50,-192 95,23 158,34 191,34 128,0 192,-48 192,-146 0,-70 -26,-134 -78,-189 -85,-74 -169,-148 -253,-223 -163,-145 -245,-316 -245,-515 0,-207 78,-364 232,-471 135,-93 315,-139 540,-139 127,0 270,19 428,56l40 809z"/>
  </g>
  <path class="fil3" d="M6519 5640c-3,5 -1,1 -5,9 -32,64 -37,129 20,181 20,19 55,36 82,49 20,10 73,36 94,38l333 -71c114,-28 216,-55 321,-87 98,-30 495,-163 599,-218 -5,-21 -20,-53 -29,-75 -11,-28 -20,-50 -31,-78l-62 -151c-19,2 -132,53 -154,64 -100,49 -365,137 -473,172 -162,52 -343,98 -515,134l-179 34z"/>
  <path class="fil3" d="M6751 5064c-3,5 -1,1 -5,9l-109 272c-8,19 -34,78 -36,97 79,-5 549,-150 607,-170 212,-74 301,-113 489,-192 18,-8 57,-22 66,-34 -6,-25 -20,-54 -30,-79l-65 -162c-10,-26 -21,-57 -32,-81l-106 48c-156,77 -383,164 -548,219l-231 73z"/>
  <path class="fil4" d="M6710 5917c4,4 1,2 8,6 46,22 228,57 283,63 19,2 32,3 54,5 172,18 356,11 516,-12 78,-11 123,-23 196,-44 60,-18 202,-71 239,-120 15,-20 31,-58 26,-96 -3,-22 -56,-155 -68,-178 -104,55 -501,188 -599,218 -105,32 -208,59 -321,87l-333 71z"/>
  <path class="fil4" d="M6601 5441c-12,12 -36,80 -43,97 -12,31 -32,71 -39,102l179 -34c172,-37 353,-82 515,-134 108,-35 373,-123 473,-172 22,-11 135,-62 154,-64l-37 -95c-6,-16 -12,-31 -19,-49 -4,-10 -5,-13 -9,-23l-12 -25c-9,12 -48,26 -66,34 -188,79 -277,117 -489,192 -58,20 -528,165 -607,170z"/>
  <path class="fil3" d="M7014 4408c-10,18 -15,36 -22,53l-146 367 21 -2c209,-72 506,-202 688,-298 -7,-28 -91,-232 -110,-280 -7,-17 -9,-28 -17,-42 -68,36 -135,72 -203,106 -66,33 -143,70 -210,96z"/>
  <path class="fil4" d="M6846 4828c-10,12 -40,94 -48,115l-47 121 231 -73c165,-55 393,-142 548,-219l106 -48c-7,-14 -13,-32 -19,-49l-40 -97c-3,-8 -6,-16 -10,-26 0,-1 -5,-11 -5,-13 -5,-11 -2,-5 -7,-11 -182,97 -479,226 -688,298l-21 2z"/>
  <path class="fil4" d="M7014 4408c68,-26 144,-63 210,-96 68,-34 135,-70 203,-106 -4,-17 -14,-39 -21,-56l-69 -171c-23,5 -45,18 -77,18 -33,0 -52,-14 -77,-18 -11,46 -165,404 -168,429z"/>
  <path class="fil3" d="M7182 3979c25,4 44,18 77,18 32,0 54,-13 77,-18 124,-66 109,-241 -11,-293 -9,-4 -19,-6 -29,-6l-43 0c-56,0 -65,5 -98,32 -80,67 -82,194 27,267z"/>
  <path class="fil5" d="M7281 4759c3,-17 10,-25 12,-46 2,-24 -3,-36 -5,-57 -4,-10 -12,-25 -11,-35 -14,-11 -10,-27 -42,-56 -55,-52 -146,-29 -138,83 7,105 109,175 162,134 9,-5 18,-18 22,-24z"/>
  <path class="fil5" d="M7301 4748c9,73 139,51 132,-81 -2,-40 -32,-84 -77,-62 -37,4 -61,67 -55,143z"/>
  <path class="fil6" d="M7272 4790c46,-65 33,-75 16,-49 -2,3 -5,13 -7,17 -36,70 -171,21 -182,-110 -8,-112 83,-129 138,-77 31,30 60,157 63,145 28,-10 -46,-176 -101,-183 -90,-31 -146,80 -94,184 9,17 19,34 32,49 24,26 46,35 69,38 20,3 43,4 65,-14z"/>
  <path class="fil6" d="M7294 4664c3,24 9,41 10,51 4,53 -20,-86 49,-106 45,-22 76,19 79,59 7,132 -122,153 -131,81 2,0 -1,-5 -2,-11 -2,-9 9,-26 6,-41 -2,-23 -10,-39 -18,-46 2,20 4,37 3,61 0,11 -1,19 -4,28 -5,19 -4,37 46,59 20,8 42,0 56,-9 96,-63 58,-230 -33,-192 -12,5 -61,52 -59,66z"/>
  <path class="fil7" d="M7181 4685c-56,28 -17,102 35,80 52,-23 15,-104 -35,-80z"/>
  <path class="fil7" d="M7210 4442c-24,-22 -88,-20 -117,-6 -32,15 -61,55 -44,97 49,-89 67,-68 161,-91z"/>
  <path class="fil7" d="M7485 4595c-3,-35 -22,-68 -44,-83 -32,-22 -54,-23 -95,-14 1,-4 136,87 139,97z"/>
  <g id="_1385225452576">
   <path class="fil8" d="M7189 5217c5,6 3,9 7,17 4,7 6,11 10,18 6,10 17,23 27,26 27,12 13,14 40,0 12,-6 28,-9 41,-13 15,-5 8,-10 22,-18 8,-5 -1,0 7,-3 54,-21 28,-78 21,-119 -7,-42 -18,-53 -15,-89l-11 0 -33 10c0,16 7,46 8,67 1,23 10,35 6,61 -47,5 -18,-99 -33,-127 -69,-12 -79,0 -91,46 -14,44 -10,75 -7,125z"/>
   <path class="fil7" d="M7508 4937c-6,9 -11,12 -23,17 -7,3 -32,18 -46,24 -12,5 -2,3 -18,8 -24,8 -17,7 -39,16l-18 7c-92,29 -192,-17 -287,-22 5,6 92,45 108,49 27,6 13,10 29,9 8,0 7,-3 15,-5 1,0 2,0 3,0 2,0 3,0 5,0 1,0 1,0 2,0 1,0 3,0 4,0 8,0 17,0 23,0 39,0 17,7 49,-2 19,-5 26,-10 34,-5 56,60 118,168 55,230 -53,52 -159,61 -199,-10 -4,-7 -6,-11 -10,-18 -32,-81 21,-122 18,-190 -18,-18 -42,13 -72,54l22 12c9,17 -7,49 1,105 9,60 60,102 114,111 64,11 124,-9 163,-62 8,-10 10,-15 16,-26 19,-40 19,-86 3,-127 0,-1 -1,-3 -2,-4 -7,-20 7,-28 24,-50 11,-14 62,-124 75,-151 25,9 3,14 21,18 4,-35 -49,-69 -58,-44 43,0 31,18 14,34 -11,10 -24,19 -28,22z"/>
   <path class="fil7" d="M7066 4981c-25,-19 -3,-29 -1,-33 -12,-6 -30,10 -36,19 -8,12 -15,39 -3,51l3 -12c1,-9 -1,-21 7,-32 3,-4 1,-2 4,-4 17,14 50,108 123,140l-6 -11c11,-2 10,-1 16,-9 1,-1 4,-6 5,-7 28,-26 42,-48 109,-36 15,29 -14,132 33,127 3,-26 -5,-38 -6,-61 -1,-21 -8,-51 -8,-67l33 -10c6,-2 11,-4 14,-6 8,-6 1,-12 -13,-3 -9,6 -22,7 -31,10 -26,7 -15,2 -41,2 -25,-6 -87,2 -101,-12 41,3 113,12 155,-4 19,-7 14,0 44,-12l18 -7c21,-8 14,-8 38,-15 7,-2 29,-13 37,-16 1,0 43,-27 44,-27 4,-3 29,-21 42,-35 4,-5 6,-11 7,-13 -12,-3 -60,44 -73,52l-54 29c-3,1 -3,1 -6,2l-39 17c-1,0 -1,0 -2,1 -1,0 -1,0 -2,1 -3,1 -4,1 -6,2 -2,1 -5,2 -6,2 -61,22 -66,13 -85,18 -31,9 -63,-2 -95,-2 -17,0 -13,-3 -28,-5 -12,-2 -4,1 -13,-4 -8,-3 -71,-26 -73,-28z"/>
   <path class="fil9" d="M7287 5047c15,29 -14,132 33,127 3,-26 -5,-38 -6,-61 -1,-21 -8,-51 -8,-67l33 -10c21,-9 19,-21 1,-9 -9,6 -22,8 -31,10 -26,7 -15,2 -41,2 -22,0 10,6 19,8z"/>
   <path class="fil10" d="M7233 5278c11,23 104,51 172,-16 18,-18 17,-30 28,-48 3,-25 10,-38 5,-66 -7,-40 -26,-69 -48,-96 -7,-8 -18,-17 -31,-22 -3,-1 -35,6 -9,5 -3,36 8,47 15,89 7,41 33,98 -21,119 -9,3 0,-1 -7,3 -14,9 -7,13 -22,18 -13,4 -29,7 -41,13 -26,14 -13,12 -40,0z"/>
   <path class="fil11" d="M7394 5023c23,38 37,55 69,28 8,-7 13,-14 19,-23 11,-18 24,-32 25,-63 -15,2 -102,45 -107,49 -5,5 -2,0 -6,8z"/>
   <path class="fil11" d="M7165 5091l12 -20c8,-14 13,-17 13,-29 -11,-8 -37,-11 -59,-17 -23,-6 -46,-20 -52,-21 -2,26 55,87 87,87z"/>
   <path class="fil12" d="M7256 5208c10,-13 11,-52 5,-72 -7,-25 -3,-1 -6,-33 -2,-16 1,-22 0,-34l-16 -1c-10,13 -8,16 -8,37 1,41 -15,70 5,97 7,9 4,8 19,6z"/>
  </g>
  <path class="fil7" d="M7327 4693c-56,28 -17,102 35,80 52,-23 15,-104 -35,-80z"/>
  <path class="fil15" d="M3365 274l-95 251 -208 -96c-46,-21 -113,-55 -201,-102 -37,22 -99,56 -187,102 -61,29 -134,61 -219,96l-95 -251c52,-21 141,-59 264,-116 62,-33 141,-82 237,-148 48,33 128,82 240,148 67,35 155,74 264,116z"/>
 </g>
</svg>
